<svg xmlns="http://www.w3.org/2000/svg" width="32" height="32" viewBox="0 0 212.66 159.58"><path fill="#b9a77a" d="M174.75,64.76c-.51.49-1.03.97-1.56,1.43l24.97,37.26-9.49-1.27c-3.07-.41-5.78-2.23-7.32-4.92l-14.9-25.99c-.59.38-1.19.75-1.8,1.1l23.89,43.44-9.5-1.91c-3.11-.63-5.74-2.7-7.07-5.58l-14.9-32.22c-.65.27-1.31.52-1.98.76l15.62,35.35-7.25-1.46c-3.41-.69-6.22-3.11-7.4-6.38l-9.1-25.26c-.69.14-1.39.26-2.08.37l10.07,29.57-5.42-1.09c-3.72-.75-6.68-3.55-7.65-7.21l-5.19-19.61h0c-.67.18-1.33.38-1.98.6l6.01,24.45-3.88-.78c-4.03-.81-7.14-4.01-7.84-8.06l-2.15-12.43-3.71,8.6c-.41.96-.31,2.06.26,2.93l11.44,17.23c.16.24.25.51.27.8l.22,3.26,7.21,7.21h16.95v7.4l-3.61-3.61h-3.98l3.78,3.78-4.12,4.12v-4.12l-3.79-3.78h-3.64l-3.79,3.78v3.26l-4.4-4.41,3.82-3.72-6.73-6.73-2.42.27c-.38.04-.77-.05-1.09-.26l-14.15-9.4,10.17,13.73,16.19,21.87h-6.83c-3.87,0-7.39-2.25-9.02-5.76l-5.94-12.77c-.56.26-1.13.51-1.7.73l9.53,24.02h-3.29c-4.81,0-8.93-3.44-9.79-8.17l-2.57-14.1c-.56.1-1.12.19-1.7.26l2.15,16.84c.41,3.24-.79,6.47-3.21,8.66l-3.04,2.74-3.04-2.74c-2.42-2.18-3.62-5.42-3.21-8.65l2.15-16.84c-.57-.07-1.13-.16-1.7-.26l-2.57,14.1c-.86,4.73-4.98,8.17-9.79,8.17h-3.29l9.53-24.02c-.57-.22-1.14-.47-1.7-.73l-5.94,12.77c-1.63,3.51-5.15,5.76-9.02,5.76h-6.83l16.19-21.87,10.17-13.73-14.15,9.4c-.32.21-.71.31-1.09.26l-2.42-.27-6.73,6.73,3.82,3.72-4.4,4.41v-3.26l-3.79-3.78h-3.64l-3.79,3.78v4.12l-4.12-4.12,3.78-3.78h-3.98l-3.61,3.61v-7.4h16.95l7.21-7.21.23-3.26c.02-.28.11-.56.27-.79l11.44-17.23c.58-.87.68-1.97.26-2.93l-3.71-8.61h0l-2.15,12.43c-.7,4.05-3.82,7.25-7.85,8.06l-3.87.78,6.01-24.46c-.65-.22-1.32-.41-1.99-.6l-5.18,19.62c-.97,3.67-3.94,6.47-7.66,7.21l-5.42,1.09,10.08-29.57c-.7-.1-1.39-.23-2.08-.36l-9.1,25.27c-1.18,3.28-3.99,5.7-7.4,6.38l-7.25,1.46,15.61-35.37c-.67-.23-1.32-.49-1.97-.75l-14.9,32.21c-1.33,2.88-3.96,4.95-7.07,5.58l-9.51,1.91,23.91-43.44c-.61-.35-1.21-.72-1.8-1.11l-14.9,26c-1.54,2.69-4.25,4.51-7.32,4.92l-9.49,1.27,24.97-37.27c-.53-.46-1.05-.94-1.57-1.43l-14.06,20.21c-1.73,2.49-4.49,4.05-7.52,4.25l-9.33.62,25.22-31.34c-.44-.55-.86-1.12-1.28-1.7l-13.99,16.78c-1.89,2.27-4.69,3.58-7.64,3.58H0l44.7-46.58c2.41-2.51,5.73-3.93,9.21-3.93h9.97c2.67,0,4.83,2.16,4.83,4.83v5.63c0,4.54,1.52,8.72,4.06,12.07,3.64,4.8,9.41,7.9,15.91,7.9,1.44,0,2.85-.16,4.21-.45,1.08-.23,1.96-1.03,2.25-2.1l3.54-12.81c.05-.23.06-.47.02-.7-.24-1.55-2.34-2.52-4.7-2.16-1.89.28-3.36,1.34-3.75,2.54,0,0-1.05-2.04-1.07-3.56-.03-1.96.81-3.05,2.71-4.01l3.3-1.55c2.08-1.91,5.46-3.14,9.3-3.14,5.9,0,10.76,2.93,11.38,6.72l.06.46,2.39,17.98c.17,1.28,1.16,2.31,2.44,2.52,1.05.17,2.12.26,3.22.26,6.49,0,12.26-3.09,15.91-7.9,2.55-3.35,4.06-7.53,4.06-12.07v-5.63c0-2.67,2.16-4.83,4.83-4.83h9.97c3.48,0,6.8,1.42,9.21,3.93l44.7,46.58h-9.28c-2.95,0-5.75-1.31-7.64-3.58l-14-16.78c-.41.57-.83,1.14-1.27,1.7l25.21,31.34-9.34-.62c-3.02-.2-5.79-1.76-7.52-4.25l-14.06-20.21Z"/><polygon fill="#b9a77a" points="100.41 18.2 106.32 13.9 112.23 18.2 109.97 11.25 115.88 6.95 108.58 6.95 106.32 0 104.06 6.95 96.76 6.95 102.67 11.25 100.41 18.2"/><polygon fill="#b9a77a" points="129.94 18.38 133.72 24.63 134.33 17.34 141.44 15.67 134.71 12.84 135.32 5.56 130.55 11.09 123.81 8.26 127.6 14.52 122.82 20.05 129.94 18.38"/><polygon fill="#b9a77a" points="78.31 17.35 78.85 24.64 82.7 18.43 89.79 20.17 85.07 14.59 88.91 8.38 82.16 11.14 77.44 5.56 77.98 12.84 71.21 15.61 78.31 17.35"/></svg>
